<!DOCTYPE svg PUBLIC "-//W3C//DTD SVG 1.1//EN" "http://www.w3.org/Graphics/SVG/1.1/DTD/svg11.dtd">

<svg width="600px" height="600px" viewBox="-2.4 -2.4 28.80 28.80" fill="none" xmlns="http://www.w3.org/2000/svg">

<g id="SVGRepo_bgCarrier" stroke-width="0">

<path transform="translate(-2.4, -2.4), scale(1.7999999999999998)" fill="#3D0000" d="M9.166.33a2.25 2.25 0 00-2.332 0l-5.25 3.182A2.25 2.25 0 00.5 5.436v5.128a2.25 2.25 0 001.084 1.924l5.25 3.182a2.25 2.25 0 002.332 0l5.25-3.182a2.25 2.25 0 001.084-1.924V5.436a2.25 2.25 0 00-1.084-1.924L9.166.33z" strokewidth="0"/>

</g>

<g id="SVGRepo_tracerCarrier" stroke-linecap="round" stroke-linejoin="round"/>

<g id="SVGRepo_iconCarrier"> <path d="M5 14.2864C3.14864 15.1031 2 16.2412 2 17.5C2 19.9853 6.47715 22 12 22C17.5228 22 22 19.9853 22 17.5C22 16.2412 20.8514 15.1031 19 14.2864M18 8C18 12.0637 13.5 14 12 17C10.5 14 6 12.0637 6 8C6 4.68629 8.68629 2 12 2C15.3137 2 18 4.68629 18 8ZM13 8C13 8.55228 12.5523 9 12 9C11.4477 9 11 8.55228 11 8C11 7.44772 11.4477 7 12 7C12.5523 7 13 7.44772 13 8Z" stroke="white" stroke-width="2" stroke-linecap="round" stroke-linejoin="round"/> </g>

</svg>